# xmcd
#
# Track frame offsets:
#	150
#	18522
#	37137
#	54216
#	74737
#	96624
#	116497
#	133721
#	153353
#	182316
#	200329
#
# Disc length: 2854 seconds
#
# Revision: 7
# Processed by: cddbd v1.5.2PL0 Copyright (c) Steve Scherf et al.
# Submitted via: Jack! The Knife 19 Blackthorn
#
DISCID=990b240b
DTITLE=Tiromancino - 95 - 05 [CD 1)
DYEAR=2005
DGENRE=Pop
TTITLE0=Della Stessa Materia Dei Sogni
TTITLE1=Un Tempo Piccolo
TTITLE2=Amore Amaro
TTITLE3=La Descrizione Di Un Attimo
TTITLE4=Muovo Le Ali Di Nuovo
TTITLE5=Per Me E' Importante
TTITLE6=I Giorni Migliori
TTITLE7=Il Peggio Non E' Tranquillo
TTITLE8=La Distanza
TTITLE9=Amore Impossibile
TTITLE10=Cosa Cerchi Veramente
EXTD=Zampaglione, Pesce, Pulcinelli
EXTT0=
EXTT1=
EXTT2=
EXTT3=
EXTT4=
EXTT5=
EXTT6=
EXTT7=
EXTT8=
EXTT9=
EXTT10=
PLAYORDER=
